<?xml version="1.0" encoding="UTF-8"?>
<svg width="21px" height="16px" viewBox="0 0 21 16" version="1.1" xmlns="http://www.w3.org/2000/svg" xmlns:xlink="http://www.w3.org/1999/xlink">
    <title>noun_Email_681624</title>
    <g id="Permissions-(Final-Version)" stroke="none" stroke-width="1" fill="none" fill-rule="evenodd" opacity="0.500883557">
        <g id="1920x1080" transform="translate(-1103.000000, -1681.000000)" fill="#0D0D0D" fill-rule="nonzero">
            <g id="Sections" transform="translate(844.000000, 1571.000000)">
                <g id="Basic-+" transform="translate(241.000000, 0.000000)">
                    <g id="noun_Email_681624" transform="translate(18.000000, 110.000000)">
                        <g id="Group" transform="translate(0.000000, 0.164953)">
                            <path d="M2.30487805,0.0936672414 C1.0324061,0.0936672414 0,1.13624483 0,2.42125345 L0,12.2488448 C0,13.5338534 1.0324061,14.576431 2.30487805,14.576431 L18.695122,14.576431 C19.9675939,14.576431 21,13.5338534 21,12.2488448 L21,2.42125345 C21,1.13624483 19.9675939,0.0936672414 18.695122,0.0936672414 L2.30487805,0.0936672414 L2.30487805,0.0936672414 Z M2.30487805,0.610908621 L18.695122,0.610908621 C19.1627305,0.610908621 19.5859829,0.788425862 19.9035951,1.07965862 L11.0922256,9.43634483 C10.7869061,9.72584483 10.2130939,9.72584483 9.90777439,9.43634483 L1.09640488,1.07965862 C1.41401707,0.788425862 1.83726951,0.610908621 2.30487805,0.610908621 Z M0.768292683,1.48375345 L7.2507622,7.63406897 L0.880335366,13.3560517 C0.649104878,13.0512931 0.512195122,12.6666207 0.512195122,12.2488448 L0.512195122,2.42125345 C0.512195122,2.0769 0.606182927,1.75641724 0.768292683,1.48375345 L0.768292683,1.48375345 Z M20.2317073,1.48375345 C20.3938171,1.75641724 20.4878049,2.0769 20.4878049,2.42125345 L20.4878049,12.2488448 C20.4878049,12.6666207 20.3508951,13.0512931 20.1196646,13.3560517 L13.7492378,7.63406897 L20.2317073,1.48375345 Z M7.62689268,7.98967241 L9.55564024,9.8162069 C10.0752622,10.3089052 10.9247378,10.308931 11.4443598,9.8162069 L13.3731073,7.98967241 L19.7515244,13.7116552 C19.4560902,13.9280948 19.0919451,14.0591897 18.695122,14.0591897 L2.30487805,14.0591897 C1.90805488,14.0591897 1.54390976,13.9280948 1.24847561,13.7116552 L7.62689268,7.98967241 Z" id="Shape"></path>
                        </g>
                    </g>
                </g>
            </g>
        </g>
    </g>
</svg>