<?xml version="1.0" encoding="UTF-8"?>
<svg width="16px" height="18px" viewBox="0 0 16 18" version="1.1" xmlns="http://www.w3.org/2000/svg" xmlns:xlink="http://www.w3.org/1999/xlink">
    <title>noun_Shop_2331752</title>
    <g id="Permissions-(Final-Version)" stroke="none" stroke-width="1" fill="none" fill-rule="evenodd" opacity="0.502394903">
        <g id="1920x1080" transform="translate(-1345.000000, -1619.000000)" fill="#0D0D0D" fill-rule="nonzero">
            <g id="Sections" transform="translate(844.000000, 1571.000000)">
                <g id="Complete" transform="translate(481.000000, 0.000000)">
                    <g id="noun_Shop_2331752" transform="translate(20.000000, 48.000000)">
                        <path d="M14.8059701,5.44285714 C14.7820896,5.22857143 14.5910448,5.03571429 14.3283582,5.03571429 L11.7014925,5.03571429 L11.7014925,3.53571429 C11.7014925,1.65 9.98208955,0.107142857 7.88059701,0.107142857 C5.77910448,0.107142857 4.05970149,1.65 4.05970149,3.53571429 L4.05970149,5.03571429 L1.43283582,5.03571429 C1.19402985,5.03571429 0.979104478,5.20714286 0.955223881,5.44285714 L0,17.4428571 C0,17.5714286 0.047761194,17.6785714 0.119402985,17.7642857 C0.191044776,17.85 0.334328358,17.8928571 0.47761194,17.8928571 L15.2835821,17.8928571 C15.4268657,17.8928571 15.5462687,17.85 15.641791,17.7642857 C15.7373134,17.6785714 15.7850746,17.55 15.761194,17.4428571 L14.8059701,5.44285714 Z M5.01492537,3.53571429 C5.01492537,2.12142857 6.30447761,0.964285714 7.88059701,0.964285714 C9.45671642,0.964285714 10.7462687,2.12142857 10.7462687,3.53571429 L10.7462687,5.03571429 L5.01492537,5.03571429 L5.01492537,3.53571429 Z M0.979104478,17.0357143 L1.86268657,5.89285714 L4.05970149,5.89285714 L4.05970149,8.67857143 C4.05970149,8.91428571 4.27462687,9.10714286 4.53731343,9.10714286 C4.8,9.10714286 5.01492537,8.91428571 5.01492537,8.67857143 L5.01492537,5.89285714 L10.7462687,5.89285714 L10.7462687,8.67857143 C10.7462687,8.91428571 10.961194,9.10714286 11.2238806,9.10714286 C11.4865672,9.10714286 11.7014925,8.91428571 11.7014925,8.67857143 L11.7014925,5.89285714 L13.8746269,5.89285714 L14.758209,17.0357143 L0.979104478,17.0357143 Z" id="Shape"></path>
                    </g>
                </g>
            </g>
        </g>
    </g>
</svg>