<?xml version="1.0" encoding="UTF-8"?>
<svg width="18px" height="20px" viewBox="0 0 18 20" version="1.1" xmlns="http://www.w3.org/2000/svg" xmlns:xlink="http://www.w3.org/1999/xlink">
    <title>noun_Birthday Cake_1386506</title>
    <g id="Permissions-(Final-Version)" stroke="none" stroke-width="1" fill="none" fill-rule="evenodd" opacity="0.498860677">
        <g id="1920x1080" transform="translate(-863.000000, -1646.000000)" fill="#0D0D0D" fill-rule="nonzero">
            <g id="Sections" transform="translate(844.000000, 1571.000000)">
                <g id="Basic" transform="translate(-0.000000, 0.000000)">
                    <g id="noun_Birthday-Cake_1386506" transform="translate(19.000000, 75.000000)">
                        <path d="M17.76575,11.2463293 C17.7555,11.0560488 17.74575,10.8721707 17.74575,10.7026341 C17.74575,9.4682439 16.7655,8.46382927 15.56025,8.46382927 L14.55325,8.46382927 L14.55325,6.75178442 C14.55325,6.12204052 14.05325,5.6098454 13.4385,5.6098454 L13.269,5.6098454 C12.65425,5.6098454 12.15425,6.12204052 12.15425,6.75178442 L12.15425,8.46382927 L10.1785,8.46382927 L10.1785,6.28005272 C10.1785,5.58474784 9.6785,5.01928442 9.06375,5.01928442 L8.89425,5.01928442 C8.2795,5.01928442 7.7795,5.58474784 7.7795,6.28005272 L7.7795,8.46382927 L5.80375,8.46382927 L5.80375,6.75178442 C5.80375,6.12204052 5.30375,5.6098454 4.689,5.6098454 L4.5195,5.6098454 C3.90475,5.6098454 3.40475,6.12204052 3.40475,6.75178442 L3.40475,8.46382927 L2.39775,8.46382927 C1.19275,8.46382927 0.21225,9.4679878 0.21225,10.7026341 L0.21225,12.4264268 C0.21225,12.8410488 0.42975,13.2753902 0.75925,13.5706707 L0.75925,17.9875854 C0.75925,18.976378 1.54475,19.7810366 2.51,19.7810366 L15.44875,19.7810366 C16.414,19.7810366 17.1995,18.976378 17.1995,17.9875854 L17.1995,13.5775854 C17.3575,13.4513293 17.489,13.2843537 17.585,13.0787073 C17.8345,12.5409024 17.798,11.8530244 17.76575,11.2463293 Z M13.26875,6.16830102 L13.43825,6.16830102 C13.77725,6.16830102 14.053,6.45103272 14.053,6.79804492 L14.053,8.46382927 L12.65375,8.46382927 L12.65375,6.79804492 C12.654,6.45077663 12.93,6.16830102 13.26875,6.16830102 Z M8.8935,5.57774004 L9.063,5.57774004 C9.402,5.57774004 9.67775,5.91374004 9.67775,6.32631321 L9.67775,8.46382927 L8.2785,8.46382927 L8.2785,6.32631321 C8.27875,5.91348394 8.55475,5.57774004 8.8935,5.57774004 Z M4.5185,6.16830102 L4.688,6.16830102 C5.027,6.16830102 5.30275,6.45103272 5.30275,6.79804492 L5.30275,8.46382927 L3.9035,8.46382927 L3.9035,6.79804492 C3.90375,6.45077663 4.17975,6.16830102 4.5185,6.16830102 Z M1.25825,13.8674878 C1.61475,13.9852927 1.97675,13.9235732 2.27375,13.6861707 C2.52025,13.4889756 2.6355,13.2318537 2.73725,13.0052073 C2.80525,12.8535976 2.8695,12.7101829 2.9665,12.5962195 C3.07825,12.4650976 3.23775,12.3964634 3.355,12.4295 C3.4065,12.4440976 3.4625,12.4804634 3.517,12.5339878 C3.79725,12.8105732 3.84775,13.2121341 3.9015,13.6377683 C3.95675,14.0777439 4.01425,14.5330854 4.31875,14.9118537 C4.5405,15.1876707 4.885,15.356439 5.24025,15.3630976 C5.562,15.3666829 5.8565,15.2417073 6.06275,15.0037927 C6.30275,14.7266951 6.37525,14.3691829 6.4395,14.0536707 C6.45125,13.9957927 6.463,13.9384268 6.47575,13.8815732 C6.54725,13.5604268 6.765,13.2625854 6.98225,13.1885732 C7.1055,13.1463171 7.228,13.1808902 7.3565,13.293061 C7.57525,13.4841098 7.691,13.7857927 7.81375,14.1048902 C7.885,14.2903049 7.95875,14.482122 8.056,14.658061 C8.368,15.2214756 8.9325,15.6076707 9.53,15.6663171 C9.60175,15.6732317 9.67075,15.6768171 9.737,15.6768171 C10.8435,15.6768171 11.196,14.731561 11.48225,13.9635244 C11.6355,13.5527439 11.78,13.1645 12.0105,12.8963659 C12.13125,12.7557683 12.45,12.4607439 12.80475,12.762939 C13.0495,12.9714024 13.1465,13.3022805 13.24875,13.6523659 C13.3085,13.8567317 13.3705,14.0680122 13.46475,14.2662317 C13.6595,14.6754756 14.0575,15.1113537 14.59125,15.1113537 L14.597,15.1113537 C15.174,15.1080244 15.42775,14.6362927 15.61275,14.2918415 C15.66275,14.198878 15.712,14.1064268 15.76675,14.0239634 C15.8175,13.9476463 15.8635,13.9007805 15.90725,13.8805488 C16.015,13.831122 16.14075,13.839061 16.28625,13.8485366 C16.43075,13.8580122 16.569,13.8475122 16.6985,13.818061 L16.6985,15.902439 L16.7,15.902439 L16.7,17.7317073 C16.7,18.5601344 16.0284271,19.2317073 15.2,19.2317073 L2.75,19.2317073 C1.92157288,19.2317073 1.25,18.5601344 1.25,17.7317073 L1.25,15.902439 L1.25825,15.902439 L1.25825,13.8674878 Z M17.13275,12.8579512 C16.97525,13.196 16.6925,13.3616951 16.318,13.3373659 C16.13275,13.3248171 15.92275,13.3115 15.702,13.4131707 C15.57175,13.4733537 15.45775,13.5786098 15.3535,13.7355976 C15.29,13.831122 15.2325,13.9371463 15.17475,14.0447073 C14.9905,14.3873659 14.86375,14.5973659 14.594,14.5991585 C14.593,14.5991585 14.59225,14.5991585 14.59125,14.5991585 C14.2875,14.5991585 14.0365,14.2992683 13.914,14.0416341 C13.8375,13.8808049 13.784,13.6984634 13.7275,13.5053659 C13.61375,13.1168659 13.485,12.676378 13.124,12.369061 C12.66575,11.9790244 12.06725,12.0545732 11.63475,12.558061 C11.3445,12.8958537 11.17675,13.3458171 11.01475,13.7809268 C10.6765,14.6880244 10.4265,15.2411951 9.57725,15.1566829 C9.13975,15.1139146 8.72325,14.826061 8.49075,14.4058049 C8.41075,14.2611098 8.3465,14.0943902 8.27875,13.9176829 C8.139,13.5540244 7.9945,13.1778171 7.68075,12.9037927 C7.496,12.7424512 7.29025,12.6594756 7.08275,12.6594756 C6.9965,12.6594756 6.91025,12.6738171 6.82475,12.7027561 C6.37925,12.8541098 6.07875,13.3609268 5.988,13.7678659 C5.97475,13.8277927 5.96225,13.8887439 5.95,13.9496951 C5.8935,14.2270488 5.8405,14.4890366 5.68875,14.6642073 C5.5815,14.7881585 5.42975,14.8544878 5.2495,14.8514146 C5.04175,14.8473171 4.833,14.7459024 4.70475,14.5866098 C4.4915,14.3215488 4.44575,13.9576341 4.39725,13.5727195 C4.338,13.1012439 4.27075,12.5667683 3.8635,12.1654634 C3.74775,12.0512439 3.62175,11.9741585 3.48875,11.9362561 C3.18375,11.8496951 2.83025,11.9767195 2.58925,12.2604756 C2.44525,12.4300122 2.359,12.6223415 2.283,12.791878 C2.194,12.9906098 2.11675,13.1624512 1.96625,13.2830732 C1.7215,13.4787317 1.4725,13.4208537 1.30625,13.337622 C0.97275,13.1709024 0.7115,12.770878 0.7115,12.426939 L0.7115,10.7031463 C0.7115,9.75123171 1.4675,8.97653659 2.397,8.97653659 L15.5605,8.97653659 C16.48975,8.97653659 17.246,9.75097561 17.246,10.7031463 C17.246,10.8811341 17.25625,11.0744878 17.26675,11.2745 C17.2955,11.8197317 17.32825,12.4382073 17.13275,12.8579512 Z" id="Shape"></path>
                        <path d="M4.059,4.68453659 C4.20725,4.77878049 4.37225,4.82846341 4.533,4.82846341 C4.5565,4.82846341 4.58,4.82743902 4.60325,4.82513415 C4.78575,4.84254878 4.97775,4.79260976 5.14775,4.68428049 C5.27975,4.60028049 5.39875,4.48145122 5.5115,4.32139024 C5.84,3.85478049 5.96075,3.25935366 5.851,2.64471951 C5.726,1.94454878 5.311,1.29610976 4.74125,0.910170732 C4.6575,0.853317073 4.549,0.853317073 4.46525,0.910170732 C3.89525,1.29610976 3.4805,1.94480488 3.3555,2.64497561 C3.246,3.25935366 3.3665,3.85478049 3.695,4.32139024 C3.80775,4.48119512 3.9265,4.60002439 4.059,4.68453659 Z M3.8475,2.73691463 C3.938,2.22958537 4.21625,1.75631707 4.6035,1.44003659 C4.99075,1.75631707 5.269,2.22958537 5.3595,2.73691463 C5.4445,3.213 5.3545,3.66936585 5.10625,4.0217561 C5.03125,4.12829268 4.96075,4.2005122 4.88425,4.24917073 C4.8035,4.30064634 4.71325,4.32420732 4.63725,4.31370732 C4.6155,4.31063415 4.5915,4.31063415 4.56975,4.31370732 C4.49375,4.32369512 4.4035,4.30039024 4.323,4.24942683 C4.24625,4.2005122 4.17575,4.12803659 4.10075,4.0217561 C3.8525,3.66936585 3.7625,3.213 3.8475,2.73691463 Z" id="Shape"></path>
                        <path d="M12.80925,4.68428049 C12.9575,4.77878049 13.1225,4.82846341 13.28325,4.82846341 C13.30675,4.82846341 13.33025,4.82743902 13.35375,4.82513415 C13.536,4.84280488 13.7285,4.79260976 13.89825,4.68428049 C14.03025,4.60028049 14.14925,4.48145122 14.262,4.32139024 C14.5905,3.85478049 14.71125,3.25960976 14.6015,2.64497561 C14.4765,1.94480488 14.0615,1.29610976 13.49175,0.910170732 C13.40825,0.853317073 13.29975,0.853317073 13.21575,0.910170732 C12.64575,1.29610976 12.23075,1.94480488 12.10575,2.64497561 C11.99625,3.25935366 12.11675,3.85503659 12.44525,4.32139024 C12.55825,4.48170732 12.677,4.60028049 12.80925,4.68428049 Z M12.59775,2.73717073 C12.68825,2.22984146 12.9665,1.75657317 13.35375,1.44029268 C13.741,1.75657317 14.01925,2.22984146 14.1095,2.73717073 C14.1945,3.2132561 14.1045,3.66936585 13.85625,4.0220122 C13.78125,4.12854878 13.71075,4.20076829 13.634,4.24968293 C13.5535,4.30090244 13.4635,4.32446341 13.387,4.31396341 C13.36525,4.31089024 13.3415,4.31089024 13.31975,4.31396341 C13.2435,4.32471951 13.1535,4.30090244 13.07275,4.24968293 C12.996,4.20076829 12.9255,4.12854878 12.8505,4.0220122 C12.6025,3.66936585 12.51275,3.2132561 12.59775,2.73717073 Z" id="Shape"></path>
                        <path d="M8.444,4.03584146 C8.61375,4.14391463 8.806,4.19462195 8.9885,4.17669512 C9.01175,4.179 9.0355,4.18002439 9.059,4.18002439 C9.22,4.18002439 9.385,4.13034146 9.533,4.03584146 C9.665,3.95184146 9.784,3.8330122 9.89675,3.67295122 C10.22525,3.20634146 10.346,2.61091463 10.23625,1.99653659 C10.11125,1.29636585 9.69625,0.647670732 9.12625,0.261731707 C9.0425,0.204878049 8.934,0.204878049 8.85025,0.261731707 C8.28025,0.647670732 7.8655,1.29636585 7.7405,1.99653659 C7.631,2.61091463 7.7515,3.20659756 8.08,3.67295122 C8.193,3.8330122 8.31175,3.95184146 8.444,4.03584146 Z M8.2325,2.08847561 C8.323,1.58114634 8.601,1.10762195 8.98825,0.791341463 C9.3755,1.10762195 9.65375,1.58089024 9.74425,2.08821951 C9.82925,2.56430488 9.73925,3.02067073 9.491,3.37306098 C9.416,3.47959756 9.3455,3.55181707 9.26875,3.60073171 C9.18825,3.65195122 9.09825,3.6755122 9.02175,3.6650122 C9.011,3.66347561 8.99825,3.66270732 8.98725,3.66270732 C8.97625,3.66270732 8.96525,3.66347561 8.9545,3.6650122 C8.878,3.6752561 8.788,3.65195122 8.7075,3.60073171 C8.63075,3.55181707 8.56025,3.47959756 8.48525,3.37306098 C8.23725,3.02092683 8.1475,2.56456098 8.2325,2.08847561 Z" id="Shape"></path>
                        <path d="M2.741,9.96123171 C2.633,9.87287805 2.4755,9.89157317 2.38975,10.0024634 C2.30375,10.1130976 2.32175,10.2741829 2.43,10.3622805 L3.0915,10.9008537 C3.1375,10.9382439 3.19225,10.9564268 3.247,10.9564268 C3.3205,10.9564268 3.3935,10.9233902 3.44275,10.859622 C3.52875,10.7489878 3.51075,10.5879024 3.4025,10.4998049 L2.741,9.96123171 Z" id="Path"></path>
                        <path d="M5.39125,11.2949878 C5.2625,11.245561 5.118,11.3121463 5.06925,11.4445488 L4.77175,12.2545854 C4.72325,12.3869878 4.7885,12.5345 4.91775,12.584439 C4.94675,12.5954512 4.9765,12.6008293 5.00575,12.6008293 C5.10675,12.6008293 5.202,12.5373171 5.23975,12.434878 L5.53725,11.6248415 C5.58575,11.492439 5.5205,11.3449268 5.39125,11.2949878 Z" id="Path"></path>
                        <path d="M8.07775,10.3489634 C8.03925,10.2129756 7.89975,10.135122 7.76775,10.1748171 C7.63525,10.2145122 7.559,10.3566463 7.59775,10.492378 L7.83425,11.3231585 C7.866,11.4350732 7.96575,11.5078049 8.074,11.5078049 C8.09725,11.5078049 8.12075,11.5044756 8.144,11.4973049 C8.2765,11.4576098 8.35275,11.3154756 8.314,11.1797439 L8.07775,10.3489634 Z" id="Path"></path>
                        <path d="M10.47125,10.8319634 L9.81975,11.3828293 C9.71325,11.4729756 9.69825,11.6343171 9.786,11.7434146 C9.8355,11.804622 9.907,11.836378 9.979,11.836378 C10.035,11.836378 10.0915,11.8171707 10.138,11.7777317 L10.7895,11.2268659 C10.896,11.1367195 10.911,10.975378 10.82325,10.8662805 C10.7355,10.7576951 10.57775,10.7423293 10.47125,10.8319634 Z" id="Path"></path>
                        <path d="M15.21425,9.83318293 C15.159,9.70359756 15.01125,9.64469512 14.885,9.70129268 C14.7585,9.75789024 14.70075,9.9089878 14.75625,10.0385732 L15.09475,10.8314512 C15.13575,10.9274878 15.2275,10.9851098 15.324,10.9851098 C15.3575,10.9851098 15.3915,10.9781951 15.424,10.9635976 C15.5505,10.907 15.60825,10.7559024 15.55275,10.6263171 L15.21425,9.83318293 Z" id="Path"></path>
                        <path d="M14.53525,11.7815732 C14.39775,11.7959146 14.29775,11.9214024 14.31175,12.0622561 L14.39725,12.9232561 C14.41025,13.0551463 14.519,13.1534878 14.64575,13.1534878 C14.65425,13.1534878 14.66275,13.1532317 14.67125,13.1522073 C14.80875,13.1378659 14.90875,13.012378 14.89475,12.8715244 L14.80925,12.0105244 C14.79525,11.8699268 14.672,11.7649268 14.53525,11.7815732 Z" id="Path"></path>
                        <path d="M12.81325,10.542061 C12.74425,10.4196463 12.59125,10.3776463 12.47175,10.4483293 C12.352,10.5190122 12.31125,10.6757439 12.38025,10.7981585 L12.80275,11.5477561 C12.84925,11.6299634 12.933,11.6758049 13.0195,11.6758049 C13.06175,11.6758049 13.105,11.6647927 13.14425,11.6414878 C13.264,11.5708049 13.30475,11.4140732 13.23575,11.2916585 L12.81325,10.542061 Z" id="Path"></path>
                        <ellipse id="Oval" cx="1.50875" cy="11.6414878" rx="1" ry="1"></ellipse>
                        <ellipse id="Oval" cx="4.6035" cy="10.3323171" rx="1" ry="1"></ellipse>
                        <ellipse id="Oval" cx="6.89275" cy="11.8435488" rx="1" ry="1"></ellipse>
                        <ellipse id="Oval" cx="9.445" cy="9.66671951" rx="1" ry="1"></ellipse>
                        <ellipse id="Oval" cx="9.445" cy="13.1470854" rx="1" ry="1"></ellipse>
                        <ellipse id="Oval" cx="16.35525" cy="11.9395854" rx="1" ry="1"></ellipse>
                    </g>
                </g>
            </g>
        </g>
    </g>
</svg>