<?xml version="1.0" encoding="UTF-8"?>
<svg width="23px" height="23px" viewBox="0 0 23 23" version="1.1" xmlns="http://www.w3.org/2000/svg" xmlns:xlink="http://www.w3.org/1999/xlink">
    <title>noun_Phone_1673030</title>
    <g id="Permissions-(Final-Version)" stroke="none" stroke-width="1" fill="none" fill-rule="evenodd" opacity="0.5">
        <g id="1920x1080" transform="translate(-1102.000000, -1707.000000)" fill="#0D0D0D" fill-rule="nonzero">
            <g id="Sections" transform="translate(844.000000, 1571.000000)">
                <g id="Basic-+" transform="translate(241.000000, 0.000000)">
                    <g id="noun_Phone_1673030" transform="translate(28.460471, 147.292893) scale(-1, -1) rotate(45.000000) translate(-28.460471, -147.292893) translate(17.257659, 142.792893)">
                        <g id="Group" transform="translate(0.000000, -0.000000)">
                            <path d="M1.18251906,8.93793103 C1.12028122,8.93793103 1.02692445,8.90689655 0.995805526,8.84482759 C0.871329835,8.68965517 0.746854144,8.53448276 0.653497376,8.34827586 C0.560140608,8.19310345 0.46678384,8.03793103 0.404545994,7.88275862 C0.404545994,7.88275862 0.404545994,7.85172414 0.373427072,7.85172414 C0.217832458,7.3862069 0.12447569,6.95172414 0.12447569,6.4862069 L0.12447569,6.45517241 C0.12447569,6.45517241 0.12447569,6.42413793 0.12447569,6.42413793 C0.155594613,2.8862069 5.13462224,0 11.2028122,0 C17.2710021,0 22.2500297,2.8862069 22.2811487,6.42413793 L22.2811487,6.4862069 C22.2811487,6.4862069 22.2811487,6.4862069 22.2811487,6.4862069 C22.2811487,6.95172414 22.1877919,7.41724138 22.0010783,7.88275862 L22.0010783,7.88275862 C22.0010783,7.88275862 22.0010783,7.9137931 22.0010783,7.9137931 C21.9388405,8.06896552 21.8454837,8.22413793 21.752127,8.37931034 C21.6587702,8.56551724 21.5342945,8.72068966 21.4098188,8.87586207 C21.347581,8.93793103 21.2853431,8.96896552 21.1919864,8.96896552 C19.3870888,8.84482759 17.706667,8.34827586 16.1507209,7.41724138 C15.8084127,7.2 15.4661046,6.98275862 15.1549154,6.73448276 C15.0926775,6.67241379 15.0615586,6.61034483 15.0615586,6.54827586 C15.0615586,5.89655172 15.2482721,5.27586207 15.5905803,4.71724138 C15.7772938,4.43793103 15.9640073,4.18965517 16.2129587,3.94137931 C14.6881315,3.47586207 12.9454718,3.22758621 11.2028122,3.22758621 C9.4601525,3.22758621 7.71749283,3.47586207 6.19266562,3.94137931 C6.441617,4.15862069 6.62833053,4.40689655 6.81504407,4.71724138 C7.15735222,5.27586207 7.34406576,5.89655172 7.34406576,6.54827586 C7.34406576,6.64137931 7.31294683,6.70344828 7.25070899,6.73448276 C6.93951976,6.98275862 6.59721161,7.2 6.25490346,7.41724138 C4.6678384,8.31724138 2.98741658,8.84482759 1.18251906,8.93793103 C1.18251906,8.93793103 1.18251906,8.93793103 1.18251906,8.93793103 Z M11.2028122,0.496551724 C5.41469255,0.496551724 0.653497376,3.16551724 0.622378453,6.42413793 L0.622378453,6.45517241 C0.622378453,6.88965517 0.684616299,7.29310345 0.840210912,7.66551724 L0.840210912,7.69655172 C0.902448758,7.85172414 0.964686603,7.97586207 1.05804337,8.1 C1.12028122,8.22413793 1.21363798,8.31724138 1.27587583,8.41034483 C2.95629766,8.2862069 4.51224379,7.78965517 5.97483316,6.92068966 C6.25490346,6.73448276 6.56609269,6.54827586 6.81504407,6.36206897 C6.78392515,5.83448276 6.62833053,5.33793103 6.37937915,4.90344828 C6.16154669,4.53103448 5.88147639,4.22068966 5.53916824,3.97241379 C5.47693039,3.91034483 5.41469255,3.81724138 5.44581147,3.72413793 C5.44581147,3.63103448 5.50804932,3.56896552 5.60140609,3.53793103 C7.28182791,2.94827586 9.24232004,2.66896552 11.2028122,2.66896552 C13.1633043,2.66896552 15.1237964,2.97931034 16.8042183,3.53793103 C16.897575,3.56896552 16.9598129,3.63103448 16.9598129,3.72413793 C16.9598129,3.81724138 16.9286939,3.91034483 16.8664561,3.97241379 C16.524148,4.22068966 16.2440776,4.53103448 16.0262452,4.90344828 C15.7461749,5.33793103 15.6216992,5.86551724 15.5905803,6.36206897 C15.8706506,6.57931034 16.1507209,6.76551724 16.4307912,6.92068966 C17.8622616,7.78965517 19.4493267,8.2862069 21.1297485,8.41034483 C21.2231053,8.31724138 21.2853431,8.19310345 21.347581,8.1 C21.4409377,7.97586207 21.5031756,7.82068966 21.5654134,7.69655172 C21.721008,7.29310345 21.8143648,6.88965517 21.8143648,6.45517241 L21.8143648,6.39310345 C21.752127,3.16551724 16.9909318,0.496551724 11.2028122,0.496551724 Z" id="Shape"></path>
                        </g>
                    </g>
                </g>
            </g>
        </g>
    </g>
</svg>