<?xml version="1.0" encoding="UTF-8"?>
<svg width="21px" height="18px" viewBox="0 0 21 18" version="1.1" xmlns="http://www.w3.org/2000/svg" xmlns:xlink="http://www.w3.org/1999/xlink">
    <title>noun_profile_2308938</title>
    <g id="Permissions-(Final-Version)" stroke="none" stroke-width="1" fill="none" fill-rule="evenodd" opacity="0.506440662">
        <g id="1920x1080" transform="translate(-862.000000, -1620.000000)" fill-rule="nonzero">
            <g id="Sections" transform="translate(844.000000, 1571.000000)">
                <g id="Basic" transform="translate(-0.000000, 0.000000)">
                    <g id="Group" transform="translate(18.000000, 49.000000)">
                        <path d="M20.1886985,16.9798678 L0.811301495,16.9798678 C0.47354405,16.9798678 0.198863636,16.7142428 0.198863636,16.3876202 L0.198863636,4.85727163 C0.198863636,4.53064905 0.47354405,4.26472354 0.811301495,4.26472354 L8.55635071,4.26472354 L8.55635071,4.49549277 L0.811301495,4.49549277 C0.605135841,4.49549277 0.4375,4.6577524 0.4375,4.85727163 L0.4375,16.3876202 C0.4375,16.5868389 0.605135841,16.7490986 0.811301495,16.7490986 L20.1886985,16.7490986 C20.3948642,16.7490986 20.5625,16.5868389 20.5625,16.3876202 L20.5625,4.85727163 C20.5625,4.6577524 20.3948642,4.49549277 20.1886985,4.49549277 L12.4166326,4.49549277 L12.4166326,4.26472354 L20.1886985,4.26472354 C20.526456,4.26472354 20.8011364,4.53064902 20.8011364,4.85727163 L20.8011364,16.3876202 C20.8011364,16.7142428 20.526456,16.9798678 20.1886985,16.9798678 Z" id="Path" stroke="#0D0D0D" stroke-width="0.3" fill="#0D0D0D"></path>
                        <g transform="translate(7.636364, 5.000000)" fill="#0D0D0D" id="Path">
                            <path d="M5.46082654,1.23167068 L0.267844468,1.23167068 C0.201970873,1.23167068 0.148526286,1.17998797 0.148526286,1.11628606 C0.148526286,1.05258415 0.201970905,1.00090145 0.267844468,1.00090145 L5.46082654,1.00090145 C5.52670014,1.00090145 5.58014472,1.05258415 5.58014472,1.11628606 C5.58014472,1.17998797 5.5267001,1.23167068 5.46082654,1.23167068 Z"></path>
                        </g>
                        <g transform="translate(2.165188, 0.846154)">
                            <path d="M3.16109438,9.43419471 C2.21804573,9.43419471 1.45086711,8.69230769 1.45086711,7.78034855 C1.45086711,6.86838942 2.21804573,6.1265024 3.16109438,6.1265024 C4.10414303,6.1265024 4.87132165,6.86838942 4.87132165,7.78034855 C4.87132165,8.69230769 4.10414303,9.43419471 3.16109438,9.43419471 Z M3.16109438,6.35727163 C2.34963752,6.35727163 1.68950347,6.99579326 1.68950347,7.78034855 C1.68950347,8.56490385 2.34963752,9.20342548 3.16109438,9.20342548 C3.97255124,9.20342548 4.63268529,8.56490385 4.63268529,7.78034855 C4.63268529,6.99579326 3.97255124,6.35727163 3.16109438,6.35727163 Z" id="Shape" fill="#0D0D0D"></path>
                            <g transform="translate(0.000000, 9.692308)">
                                <path d="M6.19656137,3.73347357 L0.125627394,3.73347357 C0.0597537981,3.73347357 0.00630921175,3.68179086 0.00630921175,3.61808895 L0.00630921175,2.01231972 C0.00630921175,0.979567323 0.827864625,0.139122615 1.83756365,0.139122615 L1.9425885,0.139122615 C1.99525628,0.139122615 4.3253788,0.139122615 4.37975559,0.139122615 L4.48478044,0.139122615 C5.49447947,0.139122615 6.31587952,0.979567323 6.31587952,2.01231972 L6.31587952,3.61808895 C6.31587952,3.68179086 6.26243493,3.73347357 6.19656137,3.73347357 Z M6.07724315,3.50270434 L6.07724315,2.01231972 C6.07724315,1.10667068 5.36288768,0.369891846 4.48478044,0.369891846 L1.83756362,0.369891846 C0.959456384,0.369891846 0.244945544,1.10667071 0.244945544,2.01231972 L0.244945544,3.50270434 L6.07724315,3.50270434 Z" id="Shape" fill="#000000"></path>
                                <g transform="translate(1.334812, 2.153846)" fill="#0D0D0D" id="Path">
                                    <path d="M3.27146219,1.57962742 C3.20558859,1.57962742 3.152144,1.52794471 3.152144,1.4642428 L3.152144,0.292968769 C3.152144,0.229266831 3.20558862,0.177584154 3.27146219,0.177584154 C3.33733575,0.177584154 3.39078037,0.229266862 3.39078037,0.292968769 L3.39078037,1.4642428 C3.39078037,1.52794471 3.33733575,1.57962742 3.27146219,1.57962742 Z"></path>
                                    <path d="M0.381258882,1.57962742 C0.315385286,1.57962742 0.2619407,1.52794471 0.2619407,1.4642428 L0.2619407,0.292968769 C0.2619407,0.229266831 0.315385318,0.177584154 0.381258882,0.177584154 C0.447132445,0.177584154 0.500577064,0.229266862 0.500577064,0.292968769 L0.500577064,1.4642428 C0.500577064,1.52794471 0.447132445,1.57962742 0.381258882,1.57962742 Z"></path>
                                </g>
                            </g>
                            <path d="M10.1962063,5.38551683 L6.47481509,5.38551683 C6.40894149,5.38551683 6.35549691,5.33383412 6.35549691,5.27013222 L6.35549691,2.08864182 C6.35549691,1.0327524 7.24370269,0.173978338 8.335433,0.173978338 C9.42731865,0.173978338 10.3155244,1.03275237 10.3155244,2.08864182 L10.3155244,5.27013222 C10.3155244,5.33383412 10.2620798,5.38551683 10.1962063,5.38551683 Z M6.59413327,5.1547476 L10.0768881,5.1547476 L10.0768881,2.08864182 C10.0768881,1.16015625 9.29572686,0.404747569 8.335433,0.404747569 C7.37529452,0.404747569 6.59413327,1.16015622 6.59413327,2.08864182 L6.59413327,5.1547476 L6.59413327,5.1547476 Z" id="Shape" fill="#0D0D0D"></path>
                        </g>
                        <g transform="translate(10.756098, 7.769231)" fill="#0D0D0D" id="Path">
                            <path d="M7.86282113,0.611478369 L0.146912039,0.611478369 C0.0810384436,0.611478369 0.0275938572,0.527493969 0.0275938572,0.423978369 C0.0275938572,0.320462769 0.0810384754,0.236478369 0.146912039,0.236478369 L7.86282113,0.236478369 C7.92869473,0.236478369 7.98213931,0.320462769 7.98213931,0.423978369 C7.98213931,0.527493969 7.92869469,0.611478369 7.86282113,0.611478369 Z"></path>
                            <path d="M5.6355484,2.7782452 L0.146912039,2.7782452 C0.0810384436,2.7782452 0.0275938572,2.6942608 0.0275938572,2.5907452 C0.0275938572,2.4872296 0.0810384754,2.4032452 0.146912039,2.4032452 L5.6355484,2.4032452 C5.701422,2.4032452 5.75486658,2.4872296 5.75486658,2.5907452 C5.75486658,2.6942608 5.70142197,2.7782452 5.6355484,2.7782452 Z"></path>
                            <path d="M7.22645749,4.94501203 L0.146912039,4.94501203 C0.0810384436,4.94501203 0.0275938572,4.86102763 0.0275938572,4.75751203 C0.0275938572,4.65399643 0.0810384754,4.57001203 0.146912039,4.57001203 L7.22645749,4.57001203 C7.29233109,4.57001203 7.34577568,4.65399643 7.34577568,4.75751203 C7.34577568,4.86102763 7.29233106,4.94501203 7.22645749,4.94501203 Z"></path>
                            <path d="M4.68100295,7.11147837 L0.146912039,7.11147837 C0.0810384436,7.11147837 0.0275938572,7.02749397 0.0275938572,6.92397837 C0.0275938572,6.82046277 0.0810384754,6.73647837 0.146912039,6.73647837 L4.68100295,6.73647837 C4.74687654,6.73647837 4.80032113,6.82046277 4.80032113,6.92397837 C4.80032113,7.02749397 4.74687651,7.11147837 4.68100295,7.11147837 Z"></path>
                        </g>
                    </g>
                </g>
            </g>
        </g>
    </g>
</svg>