<?xml version="1.0" encoding="UTF-8"?>
<svg width="22px" height="19px" viewBox="0 0 22 19" version="1.1" xmlns="http://www.w3.org/2000/svg" xmlns:xlink="http://www.w3.org/1999/xlink">
    <title>noun_marriage_1208835</title>
    <g id="Permissions-(Final-Version)" stroke="none" stroke-width="1" fill="none" fill-rule="evenodd" opacity="0.498651414">
        <g id="1920x1080" transform="translate(-1103.000000, -1651.000000)" fill="#0D0D0D">
            <g id="Sections" transform="translate(844.000000, 1571.000000)">
                <g id="Basic-+" transform="translate(241.000000, 0.000000)">
                    <g id="noun_marriage_1208835" transform="translate(18.000000, 80.000000)">
                        <g id="Group" transform="translate(0.000000, 0.159455)">
                            <path d="M7.39709575,0.0905431678 C4.39715475,0.0749425 1.56779775,1.92137 0.465926425,4.901655 C-0.953938575,8.725575 0.979954175,12.97435 4.791259,14.399175 C6.2844795,14.8978 7.3834805,15.03925 8.8241095,14.719325 C9.6343485,15.774275 10.7427748,16.622225 12.0769628,17.129275 C15.8784528,18.54385 20.123742,16.5963 21.534173,12.7718 C22.9538955,8.95775 21.019783,4.708015 17.2088405,3.2831625 C16.377191,2.971435 15.5227313,2.8251325 14.6827903,2.820735 C14.1746448,2.818085 13.6758533,2.8714025 13.1848928,2.971915 C12.0990818,1.5168125 11.1529568,1.1391525 9.92317225,0.56196 C9.09139875,0.2501625 8.23711625,0.09504 7.39709575,0.0905431678 L7.39709575,0.0905431678 Z M7.39709575,0.659669764 C8.172451,0.6642825 8.95949025,0.80738 9.72814875,1.09553 C10.8431212,1.5138925 11.8111437,2.207355 12.573309,3.1230925 C11.996379,3.29388 11.443189,3.52969 10.9247147,3.8345175 C10.425445,3.3462025 9.833943,2.945945 9.143193,2.687345 C8.56658175,2.472735 7.97030525,2.369775 7.38821975,2.3672025 C5.3093615,2.3580275 3.3483625,3.63547 2.5842925,5.7020075 C1.6066235,8.346175 2.94569225,11.2833 5.5712385,12.2649 C8.2067945,13.256525 11.1516192,11.912325 12.1301387,9.268025 C12.4699242,8.361725 12.5311615,7.415015 12.3605867,6.5379325 C12.3410192,6.463705 12.3270315,6.39519 12.3029547,6.3156125 C12.8205167,5.991385 13.32007,5.807665 13.926755,5.7124725 C13.93299,5.75395 13.944055,5.795235 13.955996,5.8354 C14.2745127,7.1233475 14.21844,8.518975 13.7166987,9.85495 C12.413373,13.390425 8.5006055,15.182 4.98625625,13.8745 C1.461525,12.55665 -0.315665075,8.6339 0.997732675,5.097295 C2.01587525,2.3429925 4.62800125,0.64373 7.39709575,0.659669764 Z M7.16664775,2.9363425 C7.75483675,2.910495 8.3521585,3.00247 8.93932,3.2209125 C9.5084195,3.43407 10.010701,3.759685 10.4372175,4.1546575 C9.24964275,4.98409 8.29165675,6.16235 7.75163,7.622855 C7.20627075,9.08895 7.1517305,10.617075 7.51233275,12.0248 C6.93815775,12.04305 6.3476125,11.946725 5.7751115,11.731325 C3.436449,10.857375 2.244649,8.254525 3.11609875,5.89765 C3.76937825,4.1307425 5.4021075,3.013885 7.16664775,2.9363425 Z M14.6827902,3.38087034 C15.4581457,3.3854825 16.245185,3.52858 17.013879,3.8167325 C20.538805,5.13449 22.315508,9.04995 21.002368,12.57615 C19.699236,16.111125 15.7947865,17.90215 12.2808002,16.5957 C11.1328485,16.135025 10.050324,15.305775 9.426826,14.56815 C10.0029232,14.398075 10.5574242,14.1515 11.075385,13.847825 C11.5728917,14.335725 12.1758917,14.729 12.8746585,14.9861 C15.5006652,15.976725 18.4380845,14.63365 19.4158335,11.989225 C20.3936445,9.3446 19.055488,6.3901275 16.4288612,5.408545 C15.8522765,5.1939375 15.2560087,5.090975 14.673941,5.0884025 C12.595065,5.0792275 10.6340572,6.3566725 9.86996075,8.4232 C9.5057265,9.4079 9.4659085,10.4298 9.692698,11.375625 C9.20070975,11.6714 8.64959275,11.8706 8.07958975,11.96255 C7.72312425,10.641275 7.76774325,9.213325 8.28342725,7.82739 C9.30157,5.0730875 11.9137047,3.36493 14.6827902,3.38087034 L14.6827902,3.38087034 Z M14.4955443,5.657545 C15.072554,5.636745 15.649564,5.7279875 16.2250235,5.9421125 C18.5627648,6.81598 19.7553355,9.437075 18.8840363,11.793575 C18.0128965,14.149675 15.407689,15.335775 13.0696555,14.45255 C12.492504,14.2405 11.9957235,13.920525 11.5717313,13.527675 C12.757322,12.6983 13.7090098,11.513025 14.248505,10.0506 C14.7913663,8.6041 14.850185,7.0956775 14.5055275,5.7020075 C14.5009825,5.6867325 14.497015,5.674055 14.4955975,5.657545 L14.4955443,5.657545 Z M11.8110553,6.6624325 C11.9599008,7.4361125 11.9001693,8.25905 11.5983328,9.0635 C11.3035915,9.8607 10.812631,10.52435 10.1979205,11.0199 C10.0538938,10.245425 10.105378,9.4201 10.4017668,8.61885 C10.6971635,7.8199175 11.1943338,7.158765 11.8110553,6.6624325 L11.8110553,6.6624325 Z" id="Shape"></path>
                        </g>
                    </g>
                </g>
            </g>
        </g>
    </g>
</svg>