<?xml version="1.0" encoding="UTF-8"?>
<svg width="9px" height="16px" viewBox="0 0 9 16" version="1.1" xmlns="http://www.w3.org/2000/svg" xmlns:xlink="http://www.w3.org/1999/xlink">
    <title>$</title>
    <g id="Permissions-(Final-Version)" stroke="none" stroke-width="1" fill="none" fill-rule="evenodd" fill-opacity="0" opacity="0.500159" stroke-linecap="round" stroke-linejoin="round">
        <g id="1920x1080" transform="translate(-1109.000000, -1623.000000)" fill="#D8D8D8" fill-rule="nonzero" stroke="#0D0D0D" stroke-width="0.6">
            <g id="Sections" transform="translate(844.000000, 1571.000000)">
                <g id="Basic-+" transform="translate(241.000000, 0.000000)">
                    <path d="M32,62.214649 C32,63.1356438 31.7565242,63.8738528 31.2695652,64.4292981 C30.7826063,64.9847434 30.1211636,65.3194297 29.2852174,65.4333672 L29.2852174,67 L27.8121739,67 L27.8121739,65.404883 C26.9437638,65.2624611 26.2600025,64.8992908 25.7608696,64.3153611 C25.2617366,63.7314315 25.008116,62.9789805 25,62.0579858 L26.9113043,61.9440488 C26.9275363,62.4282832 27.0979694,62.8199375 27.4226087,63.1190234 C27.747248,63.4181093 28.157099,63.5676501 28.6521739,63.5676501 C29.6098599,63.5676501 30.0886957,63.1593801 30.0886957,62.3428281 C30.0886957,61.982026 29.952755,61.6995602 29.6808696,61.4954222 C29.4089841,61.2912842 28.9200035,61.0847755 28.213913,60.8758901 C27.7026061,60.7239735 27.3089869,60.5910484 27.0330435,60.4771109 C26.7571001,60.3631734 26.4486974,60.1827751 26.1078261,59.9359105 C25.5072434,59.4801605 25.2069565,58.7585672 25.2069565,57.7711089 C25.2069565,56.9355672 25.4301427,56.2282158 25.8765217,55.6490336 C26.3310168,55.0413669 26.9762277,54.6758229 27.8121739,54.5523906 L27.8121739,53 L29.2852174,53 L29.2852174,54.595117 C30.0481198,54.7470337 30.6568093,55.1054567 31.1113043,55.6703967 C31.5657994,56.2353368 31.8011593,56.9403145 31.8173913,57.785351 L29.893913,57.8992879 C29.8857971,57.4435379 29.7559433,57.0827412 29.5043478,56.8168871 C29.2527524,56.5510329 28.9118862,56.4181078 28.4817391,56.4181078 C28.059708,56.4181078 27.7289867,56.5344173 27.4895652,56.7670397 C27.2501437,56.9996621 27.1304348,57.3106118 27.1304348,57.6998983 C27.1304348,58.0796899 27.2562306,58.3597821 27.5078261,58.5401831 C27.7756535,58.7205842 28.2423155,58.9009825 28.9078261,59.0813835 C29.9547878,59.3947116 30.7298526,59.7744976 31.2330435,60.2207528 C31.7443504,60.6575132 32,61.3221386 32,62.214649 Z" id="$"></path>
                </g>
            </g>
        </g>
    </g>
</svg>