<?xml version="1.0" encoding="UTF-8"?>
<svg width="20px" height="20px" viewBox="0 0 20 20" version="1.1" xmlns="http://www.w3.org/2000/svg" xmlns:xlink="http://www.w3.org/1999/xlink">
    <title>noun_Line Graph_160657</title>
    <g id="Permissions-(Final-Version)" stroke="none" stroke-width="1" fill="none" fill-rule="evenodd">
        <g id="1920x1080" transform="translate(-1345.000000, -1650.000000)">
            <g id="Sections" transform="translate(844.000000, 1571.000000)">
                <g id="Complete" transform="translate(481.000000, 0.000000)">
                    <g id="noun_Line-Graph_160657" transform="translate(20.000000, 79.000000)">
                        <g id="Group" transform="translate(0.000000, 0.163759)">
                            <g transform="translate(0.256615, -0.000012)">
                                <path d="M5.62712781,0.0940012162 C4.16461257,0.12170527 2.72556053,0.708545946 1.64686634,1.82008703 C1.64686634,1.82008703 1.64636566,1.82060054 1.64636566,1.82060054 C1.64636566,1.82060054 1.64586499,1.82111405 1.64586499,1.82111405 C-0.221364453,3.71806635 -0.532840468,6.61328378 0.881606701,8.8769027 C2.21199921,11.0213351 4.79128161,12.0175514 7.19777026,11.374273 C7.07718085,11.8380784 7.01272361,12.3250689 7.01272361,12.8275676 C7.01272361,15.998 9.56527193,18.5795095 12.7361357,18.5795095 C15.9070349,18.5795095 18.486628,15.9991297 18.486628,12.8275676 C18.486628,9.65603108 15.9058924,7.10317568 12.7361357,7.10317568 C12.2298982,7.10317568 11.7397287,7.16882838 11.2728117,7.29125 C11.9269653,4.80180838 10.8793101,2.18354162 8.64454554,0.885857027 L8.64354419,0.885343514 C7.7942827,0.386516486 6.85694749,0.126085541 5.91999638,0.0960167568 C5.82238824,0.0929951344 5.72463222,0.0921654054 5.62713115,0.0939627027 L5.62712781,0.0940012162 Z M5.90745586,0.480137703 C6.78143019,0.508463108 7.65620996,0.751670811 8.44946741,1.2178127 C8.44963825,1.2179842 8.44980943,1.21815537 8.44998092,1.21832622 C10.5913371,2.46121122 11.5686145,4.99516676 10.8540851,7.37749459 C10.8491518,7.39193922 10.8459533,7.40691912 10.8445568,7.42211892 C9.20139266,7.99445541 7.90429501,9.29246351 7.33217805,10.9359892 C5.02224715,11.6680284 2.49271684,10.7440892 1.20858327,8.67332027 C1.20841638,8.67332005 1.20824949,8.67332005 1.2080826,8.67332027 C-0.115206965,6.55559054 0.17517108,3.86384514 1.92118978,2.09089865 C1.92152569,2.09055756 1.92186033,2.09021521 1.92219369,2.08987162 C2.99610718,0.982382162 4.45084628,0.432920135 5.90746973,0.480127432 L5.90745586,0.480137703 Z M12.7361342,7.48828514 C15.699519,7.48828514 18.1014882,9.86456892 18.1014882,12.8275419 C18.1014882,15.7905405 15.6983762,18.1943486 12.7361342,18.1943486 C9.77392993,18.1943486 7.39786003,15.7916959 7.39786003,12.8275419 C7.39786003,9.86343919 9.77278711,7.48828514 12.7361342,7.48828514 Z M11.6419008,10.4444999 C11.590432,10.4441181 11.5409496,10.4643489 11.5044949,10.5006838 L9.31402209,12.6916405 C9.26363312,12.7399219 9.24330564,12.8116845 9.26088851,12.8792192 C9.27847138,12.946754 9.33121321,12.9994931 9.3987493,13.0170727 C9.46628539,13.0346524 9.53804758,13.0143219 9.58632701,12.9639311 L11.5877405,10.9620243 L13.658861,15.1047432 C13.6865305,15.1601179 13.7391315,15.1988169 13.8002323,15.2087512 C13.8613331,15.2186856 13.9234848,15.1986443 13.9672723,15.1548878 L15.8287726,13.2929135 L15.8287726,15.0184986 C15.8277922,15.0879443 15.8642797,15.1525385 15.9242638,15.1875474 C15.9842479,15.2225564 16.0584356,15.2225564 16.1184197,15.1875474 C16.1784038,15.1525385 16.2148913,15.0879443 16.2139109,15.0184986 L16.2139109,12.8345514 C16.2141053,12.8277002 16.2139884,12.8208436 16.2133974,12.8140108 C16.2132885,12.8111831 16.2131172,12.808358 16.2128838,12.8055378 C16.212282,12.8000267 16.2114425,12.7945441 16.2103676,12.7891054 C16.2102023,12.7882484 16.2100311,12.7873925 16.2098541,12.7865378 C16.2095354,12.7851648 16.2092016,12.7837954 16.2088528,12.7824297 C16.2077079,12.7775005 16.2063691,12.7726184 16.2048396,12.7677946 C16.2029655,12.7616994 16.2007898,12.755701 16.1983206,12.7498216 C16.1678077,12.6779228 16.0968909,12.6315728 16.0187901,12.6324838 C16.0092114,12.6326275 15.9996567,12.6334858 15.9902056,12.6350514 L13.8313265,12.6350514 C13.761879,12.6340688 13.6972821,12.6705556 13.6622716,12.7305401 C13.6272611,12.7905245 13.6272611,12.8647133 13.6622716,12.9246978 C13.6972821,12.9846823 13.761879,13.021169 13.8313265,13.0201865 L15.5569253,13.0201865 L13.8839819,14.6935986 L11.8128618,10.5509054 C11.7804036,10.4861144 11.7143224,10.4450282 11.6418566,10.4445824 L11.6419008,10.4444999 Z" id="Shape" fill="#0D0D0D" fill-rule="nonzero" opacity="0.501185826"></path>
                                <g id="dude" opacity="0.503976004" transform="translate(3.000000, 2.000000)">
                                    <path d="M2.70410157,2.89423077 C1.89577415,2.89423077 1.23819248,2.24507963 1.23819248,1.44711538 C1.23819248,0.649151138 1.89577415,-4.18332036e-13 2.70410157,-4.18332036e-13 C3.51242899,-4.18332036e-13 4.17001066,0.649151138 4.17001066,1.44711538 C4.17001066,2.24507963 3.51242899,2.89423077 2.70410157,2.89423077 Z M2.70410157,0.201923077 C2.00856712,0.201923077 1.44273794,0.760629504 1.44273794,1.44711538 C1.44273794,2.13360127 2.00856712,2.69230769 2.70410157,2.69230769 C3.39963603,2.69230769 3.96546521,2.13360127 3.96546521,1.44711538 C3.96546521,0.760629504 3.39963603,0.201923077 2.70410157,0.201923077 Z" id="Shape" fill="#0D0D0D" fill-rule="nonzero"></path>
                                    <path d="M5.30593042,6.386869 L0.102272727,6.386869 C0.0458096455,6.386869 5.15143483e-14,6.34164663 5.15143483e-14,6.28590747 L5.15143483e-14,4.88085939 C5.15143483e-14,3.97720104 0.704190355,3.24181192 1.56964666,3.24181192 L1.65966796,3.24181192 C1.70481177,3.24181192 3.70205965,3.24181192 3.74866833,3.24181192 L3.83868963,3.24181192 C4.70414594,3.24181192 5.40820312,3.97720104 5.40820312,4.88085939 L5.40820312,6.28590747 C5.40820312,6.34164663 5.36239347,6.386869 5.30593042,6.386869 Z M5.20365766,6.18494593 L5.20365766,4.88085939 C5.20365766,4.08841647 4.59135297,3.443735 3.83868963,3.443735 L1.56964664,3.443735 C0.816983291,3.443735 0.204545427,4.0884165 0.204545427,4.88085939 L0.204545427,6.18494593 L5.20365766,6.18494593 Z" id="Shape" fill="#000000" fill-rule="nonzero"></path>
                                    <path d="M5.30593042,6.386869 L0.102272727,6.386869 C0.0458096455,6.386869 5.06261699e-14,6.34164663 5.06261699e-14,6.28590747 L5.06261699e-14,4.88085939 C5.06261699e-14,3.97720104 0.704190355,3.24181192 1.56964666,3.24181192 L1.65966796,3.24181192 C1.70481177,3.24181192 3.70205965,3.24181192 3.74866833,3.24181192 L3.83868963,3.24181192 C4.70414594,3.24181192 5.40820312,3.97720104 5.40820312,4.88085939 L5.40820312,6.28590747 C5.40820312,6.34164663 5.36239347,6.386869 5.30593042,6.386869 Z" id="Path"></path>
                                    <path d="M5.20365766,6.18494593 L5.20365766,4.88085939 C5.20365766,4.08841647 4.59135297,3.443735 3.83868963,3.443735 L1.56964664,3.443735 C0.816983291,3.443735 0.204545427,4.0884165 0.204545427,4.88085939 L0.204545427,6.18494593 L5.20365766,6.18494593 Z" id="Path"></path>
                                    <g id="Group" transform="translate(1.138716, 5.004695)" fill="#0D0D0D" fill-rule="nonzero">
                                        <path d="M2.80411045,1.38217399 C2.74764736,1.38217399 2.70183772,1.33695162 2.70183772,1.28121245 L2.70183772,0.256347673 C2.70183772,0.200608477 2.74764739,0.155386135 2.80411045,0.155386135 C2.8605735,0.155386135 2.90638317,0.200608504 2.90638317,0.256347673 L2.90638317,1.28121245 C2.90638317,1.33695162 2.8605735,1.38217399 2.80411045,1.38217399 Z" id="Path"></path>
                                        <path d="M0.326793327,1.38217399 C0.270330245,1.38217399 0.2245206,1.33695162 0.2245206,1.28121245 L0.2245206,0.256347673 C0.2245206,0.200608477 0.270330273,0.155386135 0.326793327,0.155386135 C0.383256382,0.155386135 0.429066055,0.200608504 0.429066055,0.256347673 L0.429066055,1.28121245 C0.429066055,1.33695162 0.383256382,1.38217399 0.326793327,1.38217399 Z" id="Path"></path>
                                    </g>
                                </g>
                            </g>
                        </g>
                    </g>
                </g>
            </g>
        </g>
    </g>
</svg>