<?xml version="1.0" encoding="UTF-8"?>
<svg width="16px" height="14px" viewBox="0 0 16 14" version="1.1" xmlns="http://www.w3.org/2000/svg" xmlns:xlink="http://www.w3.org/1999/xlink">
    <title>noun_Browsers_717866</title>
    <g id="Permissions-(Final-Version)" stroke="none" stroke-width="1" fill="none" fill-rule="evenodd" opacity="0.495721726">
        <g id="1920x1080" transform="translate(-1347.000000, -1682.000000)" fill="#0D0D0D" fill-rule="nonzero">
            <g id="Sections" transform="translate(844.000000, 1571.000000)">
                <g id="Complete" transform="translate(481.000000, 0.000000)">
                    <g id="noun_Browsers_717866" transform="translate(22.000000, 111.000000)">
                        <g id="Group" transform="translate(0.000000, 0.125631)">
                            <path d="M0.930236279,0.0713345455 C0.418104167,0.0713345455 3.70232558e-06,0.513984545 3.70232558e-06,1.05618303 L3.70232558e-06,11.6925545 C3.70232558e-06,12.234753 0.418104167,12.677403 0.930236279,12.677403 L15.0697637,12.677403 C15.581894,12.677403 16.0000037,12.234753 16.0000037,11.6925545 L16.0000037,1.05618303 C16.0000037,0.513984545 15.581894,0.0713345455 15.0697637,0.0713345455 L0.930236279,0.0713345455 Z M1.04522465,0.465273939 L15.0697637,0.465273939 L15.0697637,0.465273939 C15.3821916,0.465273939 15.6279033,0.725411818 15.6279033,1.05618303 L15.6279033,2.8289103 L0.383724651,2.8289103 L0.383724651,1.12677394 C0.383724651,0.761437577 0.679888289,0.465273939 1.04522465,0.465273939 Z M1.48837581,1.25315273 C1.28287442,1.25315273 1.11628279,1.42951939 1.11628279,1.64709212 C1.11628279,1.86466485 1.28287442,2.04103152 1.48837581,2.04103152 C1.69387721,2.04103152 1.86046884,1.86466485 1.86046884,1.64709212 C1.86046884,1.42951939 1.69387721,1.25315273 1.48837581,1.25315273 Z M2.7907014,1.25315273 C2.5852,1.25315273 2.41860837,1.42951939 2.41860837,1.64709212 C2.41860837,1.86466485 2.5852,2.04103152 2.7907014,2.04103152 C2.99620279,2.04103152 3.16279442,1.86466485 3.16279442,1.64709212 C3.16279442,1.42951939 2.99620279,1.25315273 2.7907014,1.25315273 Z M4.09302698,1.25315273 C3.88752558,1.25315273 3.72093395,1.42951939 3.72093395,1.64709212 C3.72093395,1.86466485 3.88752558,2.04103152 4.09302698,2.04103152 C4.29852837,2.04103152 4.46512,1.86466485 4.46512,1.64709212 C4.46512,1.42951939 4.29852837,1.25315273 4.09302698,1.25315273 Z M0.372096726,3.2228497 L15.6279033,3.2228497 L15.6279033,11.6925545 C15.6279033,12.0233258 15.3821916,12.2834636 15.0697637,12.2834636 L0.930236279,12.2834636 C0.617806512,12.2834636 0.372096726,12.0233258 0.372096726,11.6925545 L0.372096726,3.2228497 Z" id="Shape"></path>
                        </g>
                    </g>
                </g>
            </g>
        </g>
    </g>
</svg>