<?xml version="1.0" encoding="UTF-8"?>
<svg width="14px" height="18px" viewBox="0 0 14 18" version="1.1" xmlns="http://www.w3.org/2000/svg" xmlns:xlink="http://www.w3.org/1999/xlink">
    <title>noun_Location_2316210</title>
    <g id="Permissions-(Final-Version)" stroke="none" stroke-width="1" fill="none" fill-rule="evenodd" opacity="0.496070499">
        <g id="1920x1080" transform="translate(-866.000000, -1710.000000)" fill="#0D0D0D" fill-rule="nonzero">
            <g id="Sections" transform="translate(844.000000, 1571.000000)">
                <g id="Basic" transform="translate(-0.000000, 0.000000)">
                    <g id="Group" transform="translate(22.000000, 139.000000)">
                        <path d="M7,16.3691005 C6.9377619,16.3691005 6.87857143,16.3434573 6.8377619,16.2987739 C6.34528571,15.7598141 5.77604762,15.1908693 5.17333333,14.5885025 C2.77071429,12.1872211 0.0475238095,9.46555779 0.0475238095,6.61174372 C0.0475238095,2.98736683 3.16638095,0.0387135678 7,0.0387135678 C10.833619,0.0387135678 13.9524762,2.98736683 13.9524762,6.61174372 C13.9524762,9.46528643 11.2296667,12.1866784 8.82733333,14.5877337 C8.22442857,15.1903719 7.65490476,15.7595879 7.1622381,16.2988191 C7.12147619,16.3434573 7.06228571,16.3691005 7,16.3691005 Z M7,0.446743719 C3.40328571,0.446743719 0.477190476,3.21232161 0.477190476,6.61169849 C0.477190476,9.30260804 3.13761905,11.9614975 5.48480952,14.3074221 C6.0262381,14.8485528 6.54080952,15.3628191 7,15.8555126 C7.45938095,15.3625477 7.9742381,14.8480101 8.51590476,14.306608 C10.8627619,11.9609548 13.5228571,9.30229146 13.5228571,6.61169849 C13.5228571,3.21236683 10.5967143,0.446743719 7,0.446743719 Z" id="Shape"></path>
                        <path d="M7,17.9612412 C4.44614286,17.9612412 1.73185714,17.3317387 1.73185714,16.1650854 C1.73185714,15.1587588 3.76247619,14.6062764 5.50142857,14.4388945 C5.56747619,14.432608 5.63309524,14.4555829 5.67890476,14.5014422 C6.12204762,14.9447035 6.58552381,15.4110754 7.00009524,15.8556935 C7.41490476,15.4108945 7.87833333,14.9445678 8.32138095,14.5014422 C8.36714286,14.4556281 8.43266667,14.4327437 8.49885714,14.4388945 C10.2377619,14.6062764 12.2682857,15.1587588 12.2682857,16.1650854 C12.2682857,17.3317387 9.55385714,17.9612412 7,17.9612412 Z M5.44019048,14.8553367 C3.30971429,15.076402 2.16152381,15.6906633 2.16152381,16.1650854 C2.16152381,16.4857839 2.65980952,16.834206 3.49442857,17.097196 C4.42771429,17.3912111 5.67266667,17.5531658 7,17.5531658 C8.32738095,17.5531658 9.57238095,17.3912111 10.505619,17.097196 C11.3402381,16.834206 11.8385238,16.4857387 11.8385238,16.1650854 C11.8385238,15.6906633 10.6903333,15.076402 8.55990476,14.8553367 C8.08357143,15.332201 7.58842857,15.8325829 7.16214286,16.2988643 C7.12138095,16.3434573 7.06214286,16.3691457 6.99995238,16.3691457 C6.99995238,16.3691457 6.99995238,16.3691457 6.99995238,16.3691457 C6.93771429,16.3691457 6.87857143,16.3435025 6.8377619,16.2988191 C6.41190476,15.8328995 5.91666667,15.3323819 5.44019048,14.8553367 Z" id="Shape"></path>
                        <path d="M7,10.0000854 C5.02385714,10.0000854 3.41619048,8.4798995 3.41619048,6.61138191 C3.41619048,4.743 5.02385714,3.2230402 7,3.2230402 C8.97595238,3.2230402 10.5835238,4.74304523 10.5835238,6.61138191 C10.5835238,8.4798995 8.97595238,10.0000854 7,10.0000854 Z M7,3.63111558 C5.26080952,3.63111558 3.84585714,4.96809045 3.84585714,6.61142714 C3.84585714,8.25494472 5.26080952,9.59205528 7,9.59205528 C8.73909524,9.59205528 10.1538571,8.25494472 10.1538571,6.61142714 C10.1538571,4.96809045 8.73909524,3.63111558 7,3.63111558 Z" id="Shape"></path>
                    </g>
                </g>
            </g>
        </g>
    </g>
</svg>