<?xml version="1.0" encoding="UTF-8"?>
<svg width="17px" height="16px" viewBox="0 0 17 16" version="1.1" xmlns="http://www.w3.org/2000/svg" xmlns:xlink="http://www.w3.org/1999/xlink">
    <title>noun_gender_1070055</title>
    <g id="Permissions-(Final-Version)" stroke="none" stroke-width="1" fill="none" fill-rule="evenodd" opacity="0.498998">
        <g id="1920x1080" transform="translate(-864.000000, -1680.000000)" fill="#0D0D0D" fill-rule="nonzero">
            <g id="Sections" transform="translate(844.000000, 1571.000000)">
                <g id="Basic" transform="translate(-0.000000, 0.000000)">
                    <g id="noun_gender_1070055" transform="translate(20.000000, 109.000000)">
                        <path d="M12.0770833,5.25217391 L12.0770833,1.46086957 L13.6354167,3.47826087 C13.7416667,3.6173913 13.9895833,3.65217391 14.13125,3.54782609 C14.2729167,3.44347826 14.3083333,3.2 14.2020833,3.06086957 C14.13125,2.95652174 12.0770833,0.313043478 12.00625,0.208695652 C11.8645833,0.0347826087 11.58125,0.0347826087 11.4395833,0.208695652 L9.24375,3.06086957 C9.1375,3.2 9.17291667,3.44347826 9.31458333,3.54782609 C9.45625,3.65217391 9.70416667,3.6173913 9.81041667,3.47826087 L11.36875,1.46086957 L11.36875,5.25217391 C10.4479167,5.32173913 9.5625,5.6 8.78333333,6.12173913 C7.15416667,5.32173913 5.20625,5.39130435 3.64791667,6.33043478 L2.26666667,4.3826087 L3.36458333,3.6173913 C3.54166667,3.51304348 3.57708333,3.30434783 3.43541667,3.13043478 C3.29375,2.95652174 3.11666667,2.95652174 2.93958333,3.06086957 L1.84166667,3.82608696 L1.09791667,2.7826087 C0.991666667,2.64347826 0.74375,2.60869565 0.602083333,2.71304348 C0.425,2.8173913 0.389583333,3.02608696 0.53125,3.2 L1.275,4.24347826 L0.177083333,5.00869565 C9.36750677e-17,5.11304348 -0.0354166667,5.32173913 0.10625,5.49565217 C0.2125,5.66956522 0.425,5.70434783 0.602083333,5.56521739 L1.7,4.8 L3.08125,6.74782609 C2.08958333,7.54782609 1.41666667,8.62608696 1.20416667,9.87826087 C0.425,14.3652174 5.48958333,17.6 9.35,15.0608696 C10.09375,15.4434783 10.9083333,15.6173913 11.7229167,15.6173913 C14.6270833,15.6173913 17,13.2869565 17,10.4347826 C17,7.68695652 14.8041667,5.42608696 12.0770833,5.25217391 Z M1.87708333,9.9826087 C2.08958333,8.8 2.72708333,7.75652174 3.75416667,7.06086957 C5.02916667,6.19130435 6.72916667,6.0173913 8.14583333,6.60869565 C7.08333333,7.5826087 6.44583333,8.97391304 6.44583333,10.4347826 C6.44583333,12.1043478 7.29583333,13.7043478 8.64166667,14.6434783 C5.3125,16.5217391 1.23958333,13.7043478 1.87708333,9.9826087 Z M11.7229167,14.9217391 C9.20833333,14.9217391 7.15416667,12.9043478 7.15416667,10.4347826 C7.15416667,8 9.1375,5.94782609 11.7229167,5.94782609 C11.7229167,5.94782609 11.7229167,5.94782609 11.7229167,5.94782609 C11.7229167,5.94782609 11.7229167,5.94782609 11.7229167,5.94782609 C14.2375,5.94782609 16.2916667,7.96521739 16.2916667,10.4347826 C16.2916667,12.9043478 14.2375,14.9217391 11.7229167,14.9217391 Z" id="Shape"></path>
                    </g>
                </g>
            </g>
        </g>
    </g>
</svg>